# File created by Blade
# Date/Time:  Wed Sep 24 19:10:19 2014
# Frame Rate: 120.000 fps
#------------------------------------------------------
:FULLY-SPECIFIED
:DEGREES
4342
root -7.300872 32.915769 -6.078981 26.624812 16.805816 2.055135
Spine -9.033853 8.602390 5.326319
Head -23.579198 11.625227 -3.610449
LeftShoulder -5.403326 10.199878 15.278867
LeftArm 24.864414 -13.358813 -86.716184
LeftForeArm 10.184352 -0.000000 107.862290
LeftHand -32.863565 0.000000 31.963673
LeftHandThumb1 -26.253704 0.000000 33.147579
RightShoulder -15.947318 11.876947 -24.384312
RightArm -10.854420 -32.371090 82.622569
RightForeArm -26.209117 -0.000000 46.904122
RightHand -3.703402 0.000000 9.662558
RightHandThumb1 -24.326973 -0.000000 -32.862282
LeftUpLeg -37.937345 5.535223 1.667625
LeftLeg 22.512044 -0.000000 -0.000000
LeftFoot -20.557502 4.709400 -20.249362
LeftToeBase -1.996041 -0.000000 0.000000
RightUpLeg -32.690511 -13.229990 9.901978
RightLeg 9.431832 -0.000000 -0.000000
RightFoot -8.122018 -15.510045 -7.471699
RightToeBase -1.009981 -0.000000 0.000000
4343
root -7.257529 32.909154 -6.050798 26.200326 16.309301 1.800557
Spine -9.046790 8.604294 5.240444
Head -23.495830 11.373562 -3.454584
LeftShoulder -5.592389 10.315156 15.280506
LeftArm 24.749778 -13.517321 -86.247450
LeftForeArm 10.292947 -0.000000 107.592044
LeftHand -32.816860 -0.000000 31.397230
LeftHandThumb1 -26.253704 0.000000 33.147579
RightShoulder -16.064658 11.838246 -24.454336
RightArm -10.822076 -32.090547 82.439762
RightForeArm -26.559299 -0.000000 46.695779
RightHand -3.875031 -0.000000 9.751052
RightHandThumb1 -24.326973 -0.000000 -32.862282
LeftUpLeg -37.604546 5.436238 1.959489
LeftLeg 22.373464 -0.000000 -0.000000
LeftFoot -20.544163 4.608079 -20.319091
LeftToeBase -2.032262 -0.000000 0.000000
RightUpLeg -32.228452 -13.048527 9.892458
RightLeg 9.371042 -0.000000 -0.000000
RightFoot -8.137203 -15.285141 -7.446859
RightToeBase -1.020959 -0.000000 0.000000
4344
root -7.197207 32.903627 -6.020578 25.810734 15.793644 1.585425
Spine -9.124940 8.621744 5.169966
Head -23.344194 11.131627 -3.352160
LeftShoulder -5.764038 10.550816 15.218479
LeftArm 24.702093 -13.742712 -85.793449
LeftForeArm 10.413690 -0.000000 107.330473
LeftHand -32.864246 0.000000 30.779638
LeftHandThumb1 -26.253704 0.000000 33.147579
RightShoulder -16.207992 11.722040 -24.565122
RightArm -10.748962 -31.697819 82.146657
RightForeArm -26.760547 -0.000000 46.458099
RightHand -3.913164 -0.000000 10.022862
RightHandThumb1 -24.326973 -0.000000 -32.862282
LeftUpLeg -37.189866 5.293894 2.209656
LeftLeg 22.098243 -0.000000 -0.000000
LeftFoot -20.517983 4.418531 -20.284062
LeftToeBase -1.613590 -0.000000 0.000000
RightUpLeg -31.799083 -12.920587 9.838835
RightLeg 9.343576 -0.000000 -0.000000
RightFoot -8.170112 -14.990519 -7.472891
RightToeBase -1.048434 -0.000000 0.000000
4345
root -7.142568 32.897235 -5.978221 25.329263 15.295172 1.326112
Spine -9.091208 8.566157 5.149037
Head -23.281462 10.946204 -3.211185
LeftShoulder -6.033513 10.720099 15.145119
LeftArm 24.610163 -13.987236 -85.254279
LeftForeArm 10.492774 -0.000000 107.047537
LeftHand -32.939468 -0.000000 30.084450
LeftHandThumb1 -26.253704 0.000000 33.147579
RightShoulder -16.341138 11.724553 -24.604780
RightArm -10.743549 -31.250932 81.757863
RightForeArm -26.985782 -0.000000 46.188893
RightHand -3.832589 -0.000000 10.094194
RightHandThumb1 -24.326973 -0.000000 -32.862282
LeftUpLeg -36.636045 5.202972 2.504061
LeftLeg 21.792175 -0.000000 -0.000000
LeftFoot -20.428576 4.230395 -20.191678
LeftToeBase -1.847661 -0.000000 0.000000
RightUpLeg -31.188306 -12.707509 9.769768
RightLeg 9.181734 -0.000000 -0.000000
RightFoot -8.164223 -14.738761 -7.411295
RightToeBase -1.169935 -0.000000 0.000000
4346
root -7.084545 32.889553 -5.942679 24.929516 14.854384 1.131449
Spine -9.143764 8.474676 5.081042
Head -23.216821 10.782101 -3.053356
LeftShoulder -6.323292 11.029772 15.103186
LeftArm 24.694358 -14.251464 -84.815849
LeftForeArm 10.517495 -0.000000 106.666037
LeftHand -32.960101 0.000000 29.767241
LeftHandThumb1 -26.253704 0.000000 33.147579
RightShoulder -16.489084 11.653903 -24.668104
RightArm -10.731228 -30.837273 81.308786
RightForeArm -27.163399 -0.000000 45.910295
RightHand -3.913326 -0.000000 9.919984
RightHandThumb1 -24.326973 -0.000000 -32.862282
LeftUpLeg -36.165387 4.924701 2.781877
LeftLeg 21.519883 -0.000000 -0.000000
LeftFoot -20.349493 4.008377 -20.290975
LeftToeBase -2.085237 -0.000000 0.000000
RightUpLeg -30.784214 -12.690483 9.760859
RightLeg 9.247446 -0.000000 -0.000000
RightFoot -8.264662 -14.444559 -7.512506
RightToeBase -1.142203 -0.000000 0.000000
4347
root -7.022272 32.882787 -5.906385 24.530404 14.392566 0.936515
Spine -9.197497 8.402627 5.053298
Head -23.136065 10.581868 -2.972955
LeftShoulder -6.514752 11.244342 15.043431
LeftArm 24.600530 -14.714925 -84.313251
LeftForeArm 10.444973 -0.000000 106.321227
LeftHand -33.011972 0.000000 28.731256
LeftHandThumb1 -26.253704 0.000000 33.147579
RightShoulder -16.637387 11.576841 -24.769358
RightArm -10.690718 -30.338772 80.779862
RightForeArm -27.262676 -0.000000 45.573494
RightHand -4.010500 -0.000000 9.827363
RightHandThumb1 -24.326973 -0.000000 -32.862282
LeftUpLeg -35.635316 4.650477 3.040606
LeftLeg 21.198319 -0.000000 -0.000000
LeftFoot -20.256215 3.809312 -20.336343
LeftToeBase -1.927881 -0.000000 0.000000
RightUpLeg -30.329969 -12.595526 9.701655
RightLeg 9.227665 -0.000000 -0.000000
RightFoot -8.315801 -14.187480 -7.543816
RightToeBase -1.159725 -0.000000 0.000000
4348
root -6.963831 32.874900 -5.859320 24.060523 13.979643 0.700890
Spine -9.196634 8.276738 5.107306
Head -23.039004 10.362569 -2.905648
LeftShoulder -6.722230 11.521559 14.933924
LeftArm 24.550862 -15.238803 -83.729661
LeftForeArm 10.130324 -0.000000 105.945171
LeftHand -33.073338 -0.000000 27.929464
LeftHandThumb1 -26.253704 0.000000 33.147579
RightShoulder -16.767972 11.489033 -24.845966
RightArm -10.640577 -29.827449 80.162773
RightForeArm -27.326655 -0.000000 45.239201
RightHand -4.246703 0.000000 9.447345
RightHandThumb1 -24.326973 -0.000000 -32.862282
LeftUpLeg -35.010153 4.432246 3.319080
LeftLeg 20.846313 -0.000000 -0.000000
LeftFoot -20.121574 3.481463 -20.405243
LeftToeBase -1.793888 -0.000000 0.000000
RightUpLeg -29.765608 -12.503375 9.675702
RightLeg 9.157236 -0.000000 -0.000000
RightFoot -8.364253 -13.974882 -7.580919
RightToeBase -1.159338 -0.000000 0.000000
4349
root -6.905756 32.866325 -5.813301 23.648320 13.449006 0.455237
Spine -9.249332 8.231638 5.096345
Head -22.967678 10.169659 -2.767144
LeftShoulder -6.965361 11.759585 14.867056
LeftArm 24.435383 -15.809373 -83.133646
LeftForeArm 9.819199 -0.000000 105.554972
LeftHand -33.105061 -0.000000 26.947280
LeftHandThumb1 -26.253704 0.000000 33.147579
RightShoulder -16.913279 11.387664 -24.906292
RightArm -10.524517 -29.355892 79.481666
RightForeArm -27.334373 0.000000 44.792464
RightHand -4.422732 -0.000000 9.378322
RightHandThumb1 -24.326973 -0.000000 -32.862282
LeftUpLeg -34.383286 4.337128 3.546934
LeftLeg 20.438965 -0.000000 -0.000000
LeftFoot -19.874951 3.096985 -20.433366
LeftToeBase -1.887847 -0.000000 0.000000
RightUpLeg -29.245573 -12.232470 9.595588
RightLeg 9.082765 -0.000000 -0.000000
RightFoot -8.383540 -13.790925 -7.565003
RightToeBase -1.179886 -0.000000 0.000000
4350
root -6.840170 32.857152 -5.764840 23.226302 13.031820 0.269484
Spine -9.289132 8.087108 5.092492
Head -22.898211 9.942999 -2.636918
LeftShoulder -7.203617 12.161773 14.813879
LeftArm 24.517911 -16.469094 -82.677827
LeftForeArm 9.367709 -0.000000 105.093506
LeftHand -33.342514 -0.000000 26.643938
LeftHandThumb1 -26.253704 0.000000 33.147579
RightShoulder -17.025506 11.342067 -24.989420
RightArm -10.531219 -28.778336 78.753600
RightForeArm -27.417607 -0.000000 44.373134
RightHand -4.531930 -0.000000 9.198469
RightHandThumb1 -24.326973 -0.000000 -32.862282
LeftUpLeg -33.743791 4.148275 3.700051
LeftLeg 20.049493 -0.000000 -0.000000
LeftFoot -19.671235 2.757340 -20.381029
LeftToeBase -1.727940 -0.000000 0.000000
RightUpLeg -28.735987 -12.143758 9.518775
RightLeg 9.062608 -0.000000 -0.000000
RightFoot -8.466794 -13.579477 -7.635448
RightToeBase -1.195976 -0.000000 0.000000
4351
root -6.775437 32.846614 -5.721793 22.829946 12.572312 0.074842
Spine -9.335310 7.958368 5.091428
Head -22.846654 9.773839 -2.497722
LeftShoulder -7.487204 12.602091 14.759938
LeftArm 24.658795 -17.162427 -82.255522
LeftForeArm 8.964878 -0.000000 104.559568
LeftHand -33.387192 -0.000000 26.249223
LeftHandThumb1 -26.253704 0.000000 33.147579
RightShoulder -17.136089 11.248542 -25.091273
RightArm -10.400403 -28.181859 77.952319
RightForeArm -27.539718 -0.000000 43.863714
RightHand -4.760996 0.000000 9.118359
RightHandThumb1 -24.326973 -0.000000 -32.862282
LeftUpLeg -33.100259 3.965679 3.851088
LeftLeg 19.613750 -0.000000 -0.000000
LeftFoot -19.366983 2.481745 -20.528815
LeftToeBase -2.085775 -0.000000 0.000000
RightUpLeg -28.281584 -11.969192 9.428963
RightLeg 9.093389 -0.000000 -0.000000
RightFoot -8.557983 -13.411991 -7.648808
RightToeBase -1.133153 -0.000000 0.000000
